HIERARCHY
ROOT Hips
{
	OFFSET 0.000000 0.000000 0.000000
	CHANNELS 6 Xposition Yposition Zposition Zrotation Yrotation Xrotation 
	JOINT LeftUpLeg_virtual
	{
		OFFSET 0.000000 0.000000 0.000000
		CHANNELS 3 Zrotation Yrotation Xrotation
		JOINT LeftUpLeg
		{
			OFFSET 8.479694 -4.795517 -0.379053
			CHANNELS 3 Zrotation Yrotation Xrotation
			JOINT LeftLeg
			{
				OFFSET 0.485052 -32.551468 0.112863
				CHANNELS 3 Zrotation Yrotation Xrotation
				JOINT LeftFoot
				{
					OFFSET 0.438033 -32.635670 -3.012641
					CHANNELS 3 Zrotation Yrotation Xrotation
					JOINT LeftToeBase
					{
						OFFSET 0.970169 -13.225353 11.864223
						CHANNELS 3 Zrotation Yrotation Xrotation
						End Site
						{
							OFFSET 0.000000 0.000000 0.000000
						}
					}
				}
			}
		}
	}
	JOINT RightUpLeg_virtual
	{
		OFFSET 0.000000 0.000000 0.000000
		CHANNELS 3 Zrotation Yrotation Xrotation
		JOINT RightUpLeg
		{
			OFFSET -8.479694 -4.795517 -0.379053
			CHANNELS 3 Zrotation Yrotation Xrotation
			JOINT RightLeg
			{
				OFFSET -0.484100 -32.551483 0.112903
				CHANNELS 3 Zrotation Yrotation Xrotation
				JOINT RightFoot
				{
					OFFSET -0.438985 -32.635651 -3.012681
					CHANNELS 3 Zrotation Yrotation Xrotation
					JOINT RightToeBase
					{
						OFFSET -0.970169 -13.225354 11.864223
						CHANNELS 3 Zrotation Yrotation Xrotation
						End Site
						{
							OFFSET 0.000000 0.000000 0.000000
						}
					}
				}
			}
		}
	}
	JOINT Spine_virtual
	{
		OFFSET 0.000000 0.000000 0.000000
		CHANNELS 3 Zrotation Yrotation Xrotation
		JOINT Spine
		{
			OFFSET 0.000000 7.722015 1.166203
			CHANNELS 3 Zrotation Yrotation Xrotation
			JOINT Spine1
			{
				OFFSET 0.000000 12.024086 0.248766
				CHANNELS 3 Zrotation Yrotation Xrotation
				JOINT Spine2
				{
					OFFSET -0.000000 11.503036 -0.491240
					CHANNELS 3 Zrotation Yrotation Xrotation
					JOINT Neck_virtual
					{
						OFFSET 0.000000 0.000000 0.000000
						CHANNELS 3 Zrotation Yrotation Xrotation
						JOINT Neck
						{
							OFFSET 0.000000 18.430687 -3.123054
							CHANNELS 3 Zrotation Yrotation Xrotation
							JOINT Head
							{
								OFFSET -0.000000 9.051071 1.034021
								CHANNELS 3 Zrotation Yrotation Xrotation
								End Site
								{
									OFFSET 0.000000 0.000000 0.000000
								}
							}
						}
					}
					JOINT LeftShoulder_virtual
					{
						OFFSET 0.000000 0.000000 0.000000
						CHANNELS 3 Zrotation Yrotation Xrotation
						JOINT LeftShoulder
						{
							OFFSET 6.197824 13.665230 -4.064723
							CHANNELS 3 Zrotation Yrotation Xrotation
							JOINT LeftArm
							{
								OFFSET 7.778132 -0.187073 -1.709282
								CHANNELS 3 Zrotation Yrotation Xrotation
								JOINT LeftForeArm
								{
									OFFSET 21.954697 0.000000 -2.041093
									CHANNELS 3 Zrotation Yrotation Xrotation
									JOINT LeftHand
									{
										OFFSET 22.992908 0.000000 -0.870901
										CHANNELS 3 Zrotation Yrotation Xrotation
										End Site
										{
											OFFSET 0.000000 0.000000 0.000000
										}
									}
								}
							}
						}
					}
					JOINT RightShoulder_virtual
					{
						OFFSET 0.000000 0.000000 0.000000
						CHANNELS 3 Zrotation Yrotation Xrotation
						JOINT RightShoulder
						{
							OFFSET -6.197824 13.665230 -4.064723
							CHANNELS 3 Zrotation Yrotation Xrotation
							JOINT RightArm
							{
								OFFSET -7.778132 -0.187073 -1.709282
								CHANNELS 3 Zrotation Yrotation Xrotation
								JOINT RightForeArm
								{
									OFFSET -21.954697 0.000000 -2.041093
									CHANNELS 3 Zrotation Yrotation Xrotation
									JOINT RightHand
									{
										OFFSET -22.992908 0.000000 -0.870901
										CHANNELS 3 Zrotation Yrotation Xrotation
										End Site
										{
											OFFSET 0.000000 0.000000 0.000000
										}
									}
								}
							}
						}
					}
				}
			}
		}
	}
}
MOTION
Frames: 11
Frame Time: 0.033333
12.069631 81.581383 23.491079 -179.988339 10.087369 -179.996057 -4.577453 -0.278240 11.389391 0.367066 0.292301 -23.930435 8.106843 4.896606 27.799649 0.094933 -7.987403 -12.822419 0.000000 0.000000 0.000000 -0.939388 -2.379792 10.573170 -1.724916 5.137507 -25.147199 -0.457466 4.460680 29.947227 8.997626 4.482053 -9.014041 0.000000 0.000000 0.000000 1.108487 1.219894 -1.342679 -3.180334 1.527007 -1.908271 0.717190 -1.963276 5.225169 0.015245 0.057262 -0.043008 0.456304 -0.953934 5.702776 3.174455 -9.945022 3.538545 0.000000 0.000000 0.000000 1.516209 -0.265197 2.649575 -3.915225 -7.046147 -0.176771 -65.506623 -6.891118 27.889421 4.529078 -30.467937 2.271932 0.000000 0.000000 0.000000 -2.174405 1.287924 1.544981 5.472766 -5.915080 -8.867048 -10.069718 46.519472 -74.466807 -175.270864 56.044366 -175.125190 0.000000 0.000000 0.000000 
12.077140 81.592430 23.397503 179.958068 10.545917 179.943000 -4.684706 -0.208643 11.408753 0.283314 0.288293 -23.799135 8.272780 4.913060 27.825822 0.208673 -7.822301 -12.898533 0.000000 0.000000 0.000000 -0.945233 -2.416394 10.553377 -1.803983 4.981873 -25.108428 -0.384592 4.611828 29.909043 9.220538 4.747205 -8.911519 0.000000 0.000000 0.000000 0.991903 1.249910 -1.394397 -3.186613 1.511911 -1.978316 0.694093 -1.920520 5.303481 0.008804 0.030828 -0.025833 0.459273 -0.850354 5.721471 3.190770 -10.141535 3.605082 0.000000 0.000000 0.000000 1.550944 -0.181810 2.650086 -3.897458 -6.509476 -0.478036 -67.852861 -4.232386 26.898149 4.578775 -29.573333 2.138548 0.000000 0.000000 0.000000 -2.168389 1.415142 1.580749 5.232428 -6.027866 -8.861943 -9.626341 46.860114 -74.206877 -174.789349 56.161435 -174.574171 0.000000 0.000000 0.000000 
12.101259 81.603172 23.295351 179.913740 10.998561 179.938752 -4.768742 -0.205762 11.395386 0.249917 0.268625 -23.698357 8.441682 4.940455 27.883834 0.294252 -7.675614 -12.952961 0.000000 0.000000 0.000000 -0.927925 -2.378135 10.539399 -1.810929 4.755002 -25.037291 -0.283026 4.679007 29.854238 9.452818 5.017373 -8.772699 0.000000 0.000000 0.000000 0.852692 1.203510 -1.500531 -3.187318 1.514924 -2.129873 0.716575 -1.844823 5.364385 0.000015 0.044708 -0.044215 0.488330 -0.677389 5.885952 3.252660 -10.361794 3.676426 0.000000 0.000000 0.000000 1.627229 -0.107008 2.803781 -3.778943 -6.008564 -0.654787 -69.814164 -1.706516 26.086892 4.739645 -29.557763 1.878630 0.000000 0.000000 0.000000 -2.123879 1.520935 1.729702 5.036227 -6.225364 -8.819302 -9.205615 47.085617 -73.967581 -174.375809 56.223901 -174.074693 0.000000 0.000000 0.000000 
12.136315 81.611313 23.183867 179.889684 11.290333 179.922318 -4.844664 -0.296096 11.415048 0.254882 0.186603 -23.588244 8.619864 5.006992 27.978991 0.395880 -7.494847 -13.037664 0.000000 0.000000 0.000000 -0.947274 -2.387079 10.433157 -1.792882 4.410526 -24.953193 -0.201398 4.673678 29.934475 9.638351 5.244612 -8.730993 0.000000 0.000000 0.000000 0.707170 1.075690 -1.709366 -3.180031 1.491929 -2.204365 0.764479 -1.788092 5.490067 -0.035516 0.044043 -0.020428 0.552918 -0.503703 6.003108 3.276901 -10.698367 3.778334 0.000000 0.000000 0.000000 1.711578 -0.022684 2.873681 -3.483376 -5.519548 -0.878888 -71.495634 0.514141 25.503440 4.738013 -30.072476 1.813682 0.000000 0.000000 0.000000 -2.058552 1.567908 1.871347 4.949175 -6.391765 -8.808652 -8.906697 47.361389 -73.898863 -174.336289 56.295372 -173.973907 0.000000 0.000000 0.000000 
12.163386 81.615685 23.075342 179.951292 11.638177 179.979719 -4.906488 -0.432544 11.410505 0.227225 0.322770 -23.527220 8.789803 5.015728 28.103011 0.459832 -7.344225 -13.119022 0.000000 0.000000 0.000000 -0.953883 -2.365932 10.340539 -1.775143 4.151279 -24.905516 -0.145776 4.689697 30.007091 9.774579 5.397215 -8.654815 0.000000 0.000000 0.000000 0.579762 1.018362 -1.910110 -3.196694 1.514944 -2.353382 0.873381 -1.683629 5.585752 0.045267 0.115214 -0.030728 0.552631 -0.632477 6.255699 3.275316 -10.629374 3.943941 0.000000 0.000000 0.000000 1.727132 0.015564 3.066148 -3.218060 -5.239183 -0.997926 -72.755284 2.118867 25.320140 4.777512 -30.666306 1.705362 0.000000 0.000000 0.000000 -2.054583 1.634190 2.027457 4.860895 -6.597190 -8.764897 -8.447610 47.458121 -73.524500 -174.148077 56.273580 -173.697844 0.000000 0.000000 0.000000 
12.174367 81.616585 22.972603 179.906787 11.857666 179.933875 -5.039783 -0.563860 11.446906 0.195636 0.262418 -23.459724 8.956442 5.036672 28.255005 0.528461 -7.181864 -13.188300 0.000000 0.000000 0.000000 -1.023774 -2.395013 10.263014 -1.778331 3.908164 -24.838418 -0.095630 4.707092 30.165944 9.916130 5.539564 -8.596103 0.000000 0.000000 0.000000 0.382870 0.880917 -2.087279 -3.233801 1.467022 -2.420963 0.979814 -1.654589 5.696131 0.070313 0.078413 -0.056028 0.598375 -0.438354 6.437611 3.300986 -10.695121 4.013123 0.000000 0.000000 0.000000 1.775825 0.114077 3.193794 -2.938550 -4.996098 -1.177220 -73.801492 3.066945 25.435664 4.758939 -31.071463 1.673048 0.000000 0.000000 0.000000 -1.973754 1.780987 2.244843 4.817103 -6.661889 -8.924693 -8.041025 47.607593 -73.156654 -174.199016 56.278235 -173.653830 0.000000 0.000000 0.000000 
12.164269 81.613113 22.887280 179.887935 12.016106 179.875668 -5.144852 -0.685539 11.500918 0.176580 0.220876 -23.416177 9.105101 5.023015 28.402181 0.591411 -7.019754 -13.271128 0.000000 0.000000 0.000000 -1.069056 -2.382801 10.230279 -1.788203 3.772566 -24.805186 -0.052678 4.675321 30.279120 10.052053 5.644850 -8.531774 0.000000 0.000000 0.000000 0.223938 0.844925 -2.249309 -3.300456 1.450955 -2.483689 1.026272 -1.606654 5.822451 0.036915 0.073379 -0.009463 0.735409 -0.330775 6.476493 3.328843 -10.789325 4.037227 0.000000 0.000000 0.000000 1.936674 0.159873 3.263503 -2.827005 -5.034296 -1.287750 -74.463808 3.239609 25.557680 4.699316 -31.251350 1.597853 0.000000 0.000000 0.000000 -1.799859 1.842017 2.349002 4.741980 -6.779466 -8.901788 -7.861909 47.659762 -73.024599 -174.308436 56.368919 -173.652396 0.000000 0.000000 0.000000 
12.123931 81.606026 22.824011 179.873100 12.236369 179.843867 -5.230789 -0.679789 11.525133 0.153050 0.182754 -23.411867 9.211040 4.990874 28.535656 0.629179 -6.886601 -13.334463 0.000000 0.000000 0.000000 -1.082941 -2.356258 10.214917 -1.808530 3.699803 -24.823539 -0.027301 4.719694 30.426427 10.185158 5.708563 -8.484521 0.000000 0.000000 0.000000 0.063259 0.867934 -2.386138 -3.358027 1.431740 -2.548276 1.101456 -1.580195 5.895275 0.059276 0.098022 -0.034596 0.776632 -0.350382 6.600931 3.332006 -10.715512 4.072049 0.000000 0.000000 0.000000 1.946689 0.264626 3.420132 -2.766221 -5.153403 -1.459240 -74.840637 2.855840 25.493471 4.503901 -31.274108 1.646954 0.000000 0.000000 0.000000 -1.764904 1.871550 2.516914 4.681421 -6.762458 -8.926713 -8.039245 47.721883 -73.113644 -174.307138 56.316057 -173.568344 0.000000 0.000000 0.000000 
12.063244 81.597427 22.783350 179.828991 12.335494 179.875395 -5.321757 -0.746552 11.524101 0.125809 0.100273 -23.452494 9.302966 5.001435 28.645021 0.697376 -6.738588 -13.391382 0.000000 0.000000 0.000000 -1.126940 -2.314027 10.187313 -1.834521 3.635503 -24.894388 -0.012877 4.716749 30.535344 10.319012 5.732443 -8.437481 0.000000 0.000000 0.000000 -0.056939 0.870601 -2.535649 -3.376673 1.458399 -2.614797 1.142458 -1.526772 5.983212 -0.005415 0.117355 -0.059751 0.887534 -0.255861 6.753127 3.367469 -10.658731 4.118280 0.000000 0.000000 0.000000 2.098896 0.227937 3.553017 -2.804148 -5.418868 -1.567727 -74.985041 2.216387 25.294252 4.425117 -31.410264 1.557315 0.000000 0.000000 0.000000 -1.708477 1.917450 2.569501 4.609940 -6.801869 -9.039339 -8.241130 47.803657 -73.319390 -174.480283 56.132127 -173.655579 0.000000 0.000000 0.000000 
11.995012 81.591469 22.762506 179.813268 12.335261 179.845602 -5.387116 -0.786098 11.538963 0.101306 0.016652 -23.473344 9.360820 4.950496 28.715522 0.752652 -6.628956 -13.432056 0.000000 0.000000 0.000000 -1.162361 -2.324023 10.212488 -1.862897 3.621614 -24.943523 -0.010843 4.681216 30.629013 10.436996 5.699540 -8.374446 0.000000 0.000000 0.000000 -0.174386 0.931423 -2.670583 -3.371368 1.477049 -2.652364 1.190592 -1.550141 6.075699 0.012100 0.099096 0.004663 0.960775 -0.364182 6.700288 3.447551 -10.537386 4.110714 0.000000 0.000000 0.000000 2.105330 0.250864 3.575941 -2.942791 -5.711253 -1.643103 -74.733539 1.511037 24.886330 4.248677 -31.598542 1.495915 0.000000 0.000000 0.000000 -1.687777 1.824787 2.601558 4.588743 -6.801007 -9.064495 -8.490144 47.883512 -73.428386 -174.549760 56.165752 -173.659923 0.000000 0.000000 0.000000 
11.896417 81.587891 22.758127 179.829510 12.412569 179.856981 -5.422097 -0.649814 11.534765 0.054892 -0.019724 -23.508089 9.378265 4.888165 28.744609 0.803481 -6.552593 -13.454155 0.000000 0.000000 0.000000 -1.166959 -2.210223 10.202742 -1.906881 3.637918 -25.016215 -0.022115 4.708131 30.711549 10.546720 5.633923 -8.336874 0.000000 0.000000 0.000000 -0.232135 1.001129 -2.766571 -3.365645 1.486854 -2.726081 1.231824 -1.582618 6.145385 0.066302 0.108548 0.008009 0.933573 -0.339477 6.699056 3.462034 -10.464704 4.198778 0.000000 0.000000 0.000000 2.062987 0.232367 3.600045 -2.958960 -5.929759 -1.664342 -74.510527 1.017885 24.383845 4.150910 -31.737242 1.506773 0.000000 0.000000 0.000000 -1.671396 1.870569 2.719248 4.533766 -6.820337 -9.131830 -8.555678 47.988076 -73.463008 -174.964339 56.198066 -173.893597 0.000000 0.000000 0.000000 
